<?xml version="1.0" encoding="UTF-8" standalone="no"?>
<svg
   xmlns:dc="http://purl.org/dc/elements/1.1/"
   xmlns:cc="http://creativecommons.org/ns#"
   xmlns:rdf="http://www.w3.org/1999/02/22-rdf-syntax-ns#"
   xmlns:svg="http://www.w3.org/2000/svg"
   xmlns="http://www.w3.org/2000/svg"
   xmlns:sodipodi="http://sodipodi.sourceforge.net/DTD/sodipodi-0.dtd"
   xmlns:inkscape="http://www.inkscape.org/namespaces/inkscape"
   version="1.1"
   id="svg22"
   width="1697"
   height="489"
   viewBox="0 0 1697 489"
   sodipodi:docname="logo_straight_vectored.svg"
   inkscape:version="1.0.2 (e86c8708, 2021-01-15)">
  <metadata
     id="metadata28">
    <rdf:RDF>
      <cc:Work
         rdf:about="">
        <dc:format>image/svg+xml</dc:format>
        <dc:type
           rdf:resource="http://purl.org/dc/dcmitype/StillImage" />
        <dc:title></dc:title>
      </cc:Work>
    </rdf:RDF>
  </metadata>
  <defs
     id="defs26" />
  <sodipodi:namedview
     pagecolor="#ffffff"
     bordercolor="#666666"
     borderopacity="1"
     objecttolerance="10"
     gridtolerance="10"
     guidetolerance="10"
     inkscape:pageopacity="0"
     inkscape:pageshadow="2"
     inkscape:window-width="1920"
     inkscape:window-height="1027"
     id="namedview24"
     showgrid="false"
     inkscape:zoom="3.1416812"
     inkscape:cx="848.5"
     inkscape:cy="187.18826"
     inkscape:window-x="0"
     inkscape:window-y="25"
     inkscape:window-maximized="0"
     inkscape:current-layer="g30" />
  <g
     inkscape:groupmode="layer"
     inkscape:label="Image"
     id="g30">
    <path
       style="fill:#000000"
       d="m 75.5,435.6085 c -8.982967,-2.82447 -19.505801,-12.36924 -21.482577,-19.48583 -3.314101,-11.93109 1.223105,-22.68744 11.484628,-27.2266 6.907047,-3.05532 18.146133,-0.97981 23.856214,4.40549 5.790156,5.46082 7.008761,14.90804 3.009979,23.33485 -0.851629,1.79468 -1.219747,3.79485 -0.818039,4.44482 1.081853,1.75048 12.827055,0.39865 17.908405,-2.06119 8.55395,-4.1409 17.9139,-15.51709 21.78821,-26.48165 1.376,-3.89418 2.63563,-8.52582 2.63563,-8.52582 0,0 -17.75331,-0.0356 -51.63245,-0.0123 C 0.01954078,384.05667 6,384.16557 6,382.61169 c 0,-1.84984 28.941488,-2.46192 85.638779,-1.81118 33.282731,0.382 42.843261,0.38245 42.843261,0.38245 0,0 0.13825,-0.70755 0.42034,-2.00056 0.31393,-1.43897 2.60182,-11.16233 1.48354,-11.25891 -0.48725,-0.0421 -1.78592,-0.24489 -2.88592,-0.45069 -1.1,-0.2058 -6.7778,-0.85294 -12.61734,-1.43808 -17.93119,-1.79676 -30.211315,-5.6621 -45.209434,-14.23029 C 64.914564,345.65817 59.035203,340.68074 53.024449,332.6301 L 48.4476,326.5 28.018226,326.38328 C 13.779247,326.30192 7.4743849,325.92315 7.2110924,325.13328 6.9382091,324.31463 12.27018,324 26.416667,324 c 12.409015,0 18.680055,0.0591 20.469443,0.0767 0,0 -0.552197,-1.20199 -0.67961,-1.49234 -0.30629,-0.69797 -3.510574,-6.38171 -5.205001,-11.29738 -3.873056,-11.23606 -4.892325,-23.49759 -5.689586,-33.58914 l -0.616395,-7.80218 -13.260985,0.0368 C 11.364972,269.9604 8.0853918,270.01837 8.0572882,268.56139 8.028824,267.08571 11.024721,267.02344 24,266.74594 L 35.5,266.5 l 0.31719,-3 c 1.127636,-10.66525 8.132806,-28.99835 16.327728,-42.73098 1.22455,-2.05204 3.251955,-5.21696 3.251955,-5.21696 0,0 -23.317004,0.25404 -35.92716,0.18425 -10.660637,-0.059 -12.9845407,-0.23924 -13.0689054,-1.36381 -0.04195,-1.07401 2.3138434,-1.09536 13.0148044,-1.3399 1.06452,0.0437 7.087852,-0.18356 18.092034,-0.27031 l 19.321418,-0.15231 7.678582,-8.78526 C 68.401396,199.36978 74.2,192.44136 77.5,188.52037 c 3.3,-3.92099 7.0125,-8.20197 8.25,-9.51328 2.108667,-2.57589 3.854326,-5.55296 5.732758,-7.64667 3.379409,-3.74586 4.447435,-8.49773 4.447435,-8.49773 0,0 -20.452121,0.007 -44.691985,-0.12401 C 26.998343,162.6074 6.8284385,162.1625 6.4161969,161.75 c -0.4122416,-0.4125 -0.4187159,-1.08081 -0.014387,-1.48514 0.4043287,-0.40433 20.5260711,-0.64919 44.7149831,-0.54413 37.175916,0.16147 44.781203,0.13055 44.781203,0.13055 0,0 -0.390449,-4.93114 -1.21898,-7.56409 C 93.850484,149.65423 92.95188,146.375 92.682119,145 c -0.269762,-1.375 -1.655027,-7.9 -3.078368,-14.5 -3.547348,-16.44898 -3.464064,-26.45921 0.346848,-41.689224 3.416397,-13.653365 7.564411,-21.984002 14.591671,-29.305081 6.33779,-6.602784 11.43802,-9.218276 20.81993,-10.676849 6.76147,-1.051183 7.69214,-0.981212 10.757,0.808761 7.3171,4.273418 13.70864,15.859409 17.3014,31.362393 2.16381,9.336998 3.88358,29.49946 3.10644,36.41982 -0.76993,6.8562 -6.4989,22.66915 -12.24858,33.80824 -2.19395,4.25043 -4.75313,7.98993 -4.46607,8.277 C 140.09946,159.79213 242.21142,160 365.50686,160 h 224.17353 l 14.90981,-14.81918 c 8.20039,-8.15055 18.47288,-17.93805 22.82776,-21.75 C 631.77284,119.61887 636.28125,115.6 637.43664,114.5 661.47724,91.611997 695.61231,68.055678 722,56.143548 731.98048,51.638085 746.38292,46.073417 749.86688,45.376623 752.94711,44.760578 756,46.947475 756,49.769994 c 0,0.894926 -8.51488,10.200283 -18.92195,20.678572 -10.40707,10.478289 -21.09457,21.604641 -23.75,24.725228 -8.84938,10.399546 -22.72807,26.249136 -28.81329,32.905026 -7.45227,8.15113 -24.91037,28.75075 -25.30831,29.86244 -0.5344,1.49288 4.42159,2.04322 17.93554,1.99165 l 13.35801,-0.051 10,-9.70471 c 45.252,-43.91574 75.72765,-68.752126 105.34144,-85.8489 21.42489,-12.369119 41.76067,-20.680945 49.27984,-20.142108 4.05124,0.29032 4.37872,0.522615 4.37872,3.105974 0,2.316034 -4.5308,7.346672 -26.56891,29.5 C 818.3182,91.481484 801.69884,108.675 795.99918,115 c -5.69965,6.325 -14.27637,15.775 -19.05938,21 -12.70743,13.88171 -19.28194,21.99124 -18.47914,22.79365 0.38869,0.38849 188.16931,0.56231 417.29024,0.38625 l 416.9019,-0.63841 3.7645,-2.9744 c 14.5664,-11.50915 42.629,-28.62644 54.0539,-32.55717 12.2934,-4.22956 26.0761,-1.81899 30.3662,5.31103 2.1394,3.55555 2.995,14.67905 1.129,14.67905 -0.5964,0 -0.8724,0.34308 -0.6132,0.76239 0.2591,0.41932 -1.5142,3.68182 -3.9408,7.25 l -4.4119,6.48761 9.9997,0.28498 c 7.9862,0.2276 9.9998,0.57998 9.9998,1.75 0,1.20223 -2.0743,1.46502 -11.5639,1.46502 h -11.564 l -12.186,12.28472 c -10.7321,10.81898 -34.0135,29.66063 -43.774,35.42627 -1.6017,0.94612 -2.9121,2.0732 -2.9121,2.50462 0,0.43141 18.45,0.78439 41,0.78439 26.6667,0 41,0.34959 41,1 0,0.55 -2.1375,1.02125 -4.75,1.04723 -2.6125,0.026 -22.5169,0.2529 -44.232,0.50428 l -39.482,0.45706 -8.518,5.74571 c -4.6849,3.16015 -9.2524,6.04909 -10.1501,6.41988 -0.8977,0.37079 -6.9727,3.90084 -13.5,7.84456 C 1560.1987,242.37117 1519.7466,263 1517.498,263 c -0.6892,0 -1.8133,0.675 -2.498,1.5 -1.6345,1.9694 -8.6722,1.82109 90.9851,1.91739 81.4362,0.0787 85.5015,0.16773 85.8324,1.87974 0.3311,1.71318 -2.261,1.79236 -55.4851,1.69498 -30.7078,-0.0562 -72.2609,-0.0774 -92.3402,-0.0471 l -36.5077,0.055 -11.9923,13.22088 c -6.5957,7.27148 -13.9774,15.25898 -16.4038,17.75 -7.1896,7.38126 -17.0884,19.24641 -17.0884,20.48305 0,0.83987 6.3635,1.07949 23.6675,0.89121 l 23.6675,-0.25752 4.0825,-3.91031 c 14.0955,-13.50102 33.779,-25.04422 56.5825,-33.18226 20.1938,-7.2067 36.2339,-7.53542 42.6166,-0.87337 3.4079,3.55712 5.3402,3.62183 8.4591,0.28331 4.1391,-4.43054 7.1614,-5.40499 16.7639,-5.40499 7.1744,0 9.3852,0.36148 11.2004,1.83128 3.4626,2.80389 2.0877,5.58768 -7.7523,15.69602 -13.4483,13.81495 -22.2877,23.55687 -22.2877,24.5632 0,0.52942 15.2881,0.9095 36.5833,0.9095 28.8224,0 36.4949,0.26518 36.1665,1.25 -0.3232,0.96886 -8.8322,1.26344 -37.8334,1.30975 -20.579,0.0329 -38.0914,0.41349 -38.9164,0.84585 -3.1272,1.63887 -28.2162,30.33897 -30.8399,35.27866 -1.6124,3.03578 -1.4495,6.99072 0.3159,7.66815 2.309,0.88607 9.5999,-1.69968 15.5758,-5.52404 7.8774,-5.04128 32.5147,-23.83437 38.9482,-29.70932 5.9589,-5.44156 10.0921,-7.68143 12.482,-6.76432 2.1372,0.82011 1.8856,4.32028 -0.5571,7.75076 -6.2979,8.84456 -47.0961,39.78504 -56.7107,43.00817 -5.8205,1.95119 -16.2034,1.70578 -19.4151,-0.4589 -3.7247,-2.51046 -6.7991,-9.29405 -6.7991,-15.00187 0,-7.98446 -0.586,-7.82268 -22.2109,6.13207 -6.209,4.00673 -13.8766,8.22952 -17.0391,9.38399 -3.1625,1.15447 -5.75,2.56006 -5.75,3.12354 0,0.69555 26.2489,0.84496 81.75,0.46532 44.9625,-0.30756 83.2125,-0.32781 85,-0.045 1.8179,0.28761 3.25,1.11231 3.25,1.87155 0,1.14196 -122.7827,1.36215 -773.70097,1.38747 -425.53553,0.0166 -774.06314,0.7606 -774.55854,0.77914 0,0 -0.9806,2.77403 -1.68616,5.24903 -1.41529,4.96468 -7.07158,16.63954 -10.38266,21.43032 -7.5802,10.96776 -17.5339,18.51656 -29.70369,22.52705 -10.187918,3.35737 -20.139026,3.95555 -27.46798,1.65113 z m 705,-54.39782 c 0,0.56755 -0.8,-1.08117 -3,-2.09141 -7.73481,-3.55184 -10.72606,-9.57059 -10.6002,-21.32885 l 0.0838,-7.83332 -2.74183,1.52024 c -1.508,0.83613 -7.91682,5.15044 -14.24182,9.58735 -18.67509,13.10037 -28.1064,17.23939 -39.5,17.33495 -8.37806,0.0703 -12.37455,-1.74185 -16.03268,-7.26966 -4.87911,-7.37283 -4.33717,-17.41939 1.59563,-29.58004 1.60271,-3.28513 2.55945,-6.32754 2.12609,-6.7609 -0.43337,-0.43337 -6.58498,3.50641 -13.67026,8.75507 C 654.85091,365.5216 634.6665,376 621.99943,376 c -10.59027,0 -20.14948,-6.95119 -22.69064,-16.5 -1.48954,-5.59721 -1.34536,-9.59515 0.74093,-20.5455 1.25321,-6.57775 2.09221,-12.12452 1.86443,-12.32615 -0.22778,-0.20163 -9.27105,-0.64026 -20.09614,-0.97472 l -19.92897,-0.11415 -9.57103,10.5676 C 546.85728,342.13641 539.8,350.27003 536.5,354.06062 c -18.71041,21.49198 -34.4949,28.05172 -43.71287,18.16626 -7.45343,-7.99314 -7.37349,-16.00626 0.35145,-35.22688 1.65787,-4.125 3.2574,-8.2875 3.5545,-9.25 0.50171,-1.62536 -0.85052,-1.75 -18.98609,-1.75 h -19.52627 l -9.84036,8.34061 c -24.82938,21.04519 -50.88278,35.04971 -77.84036,41.84164 -22.64825,5.70619 -46.42716,1.00785 -59.12698,-11.68258 -7.62781,-7.62217 -8.85417,-10.45824 -8.86438,-20.49967 -0.007,-6.64716 0.44914,-9.41564 2.09143,-12.70054 1.66909,-3.33849 3.29032,-5.01644 3.29032,-5.01644 l -106.47028,0.26363 c 0,0 -2.23756,2.95504 -3.82489,5.40161 -4.24911,6.54917 -11.07716,13.50645 -18.34654,18.69378 -5.96625,4.25742 -20.47961,11.25886 -26.24868,12.6627 -5.15043,1.25331 -6.18359,2.87272 -6.70297,10.50653 l -0.98409,7.19761 134.05755,0.80489 C 290.67496,381.88164 780.5,379.19732 780.5,380.55398 Z m 65.12942,-0.51949 c -6.44365,-4.10333 -8.2518,-5.57401 -10.90101,-8.86649 -1.96194,-2.43833 -3.13166,-5.22272 -3.47547,-8.27296 -0.28502,-2.52871 -0.8119,-4.77916 -1.17083,-5.00099 -0.35894,-0.22184 -4.91175,2.50688 -10.11736,6.06382 -10.18506,6.95934 -23.78166,13.99881 -29.08838,15.06016 -7.46285,1.49257 1.56301,2.18508 28.62363,2.19618 22.03957,0.009 27.6018,-0.2421 26.12942,-1.17972 z m 106.80909,0.40831 c 0.27884,-0.45118 -1.28843,-1.62995 -3.48282,-2.61948 -8.51746,-3.84084 -10.94494,-13.8807 -6.48228,-26.81018 1.48601,-4.30536 2.49645,-8.03332 2.24542,-8.28435 -0.25103,-0.25103 -3.30718,1.24177 -6.79144,3.31733 -5.69912,3.39495 -6.97024,3.7561 -12.66339,3.59791 -6.30794,-0.17527 -6.34734,-0.15891 -12.20365,5.06658 -11.26989,10.05593 -29.43109,20.06878 -42.76813,23.57944 -10.1711,2.6773 -4.97072,3.09118 38.1026,3.03244 23.94519,-0.0326 43.76484,-0.42851 44.04369,-0.87969 z m 71.40439,0.0428 c 2.2751,-0.63928 2.2276,-0.75094 -1.6413,-3.86012 -5.3424,-4.29322 -8.1199,-10.38094 -8.9895,-19.70328 l -0.7121,-7.63289 -13,9.11033 c -16.39437,11.48908 -24.33808,16.16172 -32.308,19.00417 -4.25479,1.51747 -5.88225,2.51975 -5,3.07929 1.53101,0.97098 58.1959,0.97328 61.6509,0.002 z M 1117,381.37952 c 0,-0.32211 -1.9538,-2.75876 -4.3418,-5.41476 -5.7277,-6.37061 -7.9194,-13.21171 -7.0107,-21.88317 0.8074,-7.70489 1.2049,-7.74064 -11.214,1.00841 -4.9134,3.46149 -17.5852,10.67845 -28.1596,16.03769 -15.3276,7.76826 -18.6733,9.81255 -16.5,10.08175 4.9363,0.61143 67.2261,0.76903 67.2261,0.17008 z m 68.5,-0.25567 c 1.7213,-0.12568 1.5443,-0.50513 -1.2698,-2.72293 -5.1712,-4.07534 -6.8886,-8.77383 -7.1829,-19.65092 -0.026,-0.9625 -0.6098,-1.74376 -1.2973,-1.73614 -0.6875,0.008 -6.4458,3.51165 -12.7963,7.78673 -6.3504,4.27508 -15.0124,9.33134 -19.2489,11.23614 -4.2364,1.9048 -7.7031,3.99639 -7.7037,4.64798 -8e-4,0.88812 5.9445,1.10966 23.7489,0.88493 13.0625,-0.16487 24.65,-0.36548 25.75,-0.44579 z m 78.9642,-0.0659 c 0.3202,-0.51813 -1.0286,-1.70646 -2.9974,-2.64072 -9.7473,-4.62537 -12.7372,-17.0462 -7.3769,-30.64539 3.2386,-8.21628 2.4302,-8.40101 -5.8399,-1.33444 -16.3015,13.92928 -35.8202,27.85146 -44.6122,31.82075 l -4.9658,2.24187 23.914,0.52734 c 13.1527,0.29004 27.8249,0.62754 32.605,0.75 4.78,0.12246 8.953,-0.20127 9.2732,-0.71941 z m 58.0358,0.0467 15,-0.13289 -4.0648,-3.73589 c -6.0593,-5.56909 -7.6145,-10.8291 -6.4264,-21.73588 0.3495,-3.20866 0.1202,-3.97673 -1.1589,-3.88238 -0.8771,0.0647 -6.4896,3.71641 -12.4723,8.11493 -11.6671,8.57776 -22.0682,14.50981 -32.1975,18.36322 -5.8443,2.22326 -6.1077,2.45004 -3.5,3.01282 1.5509,0.33473 8.8949,0.50068 16.3199,0.36878 7.425,-0.13189 20.25,-0.29961 28.5,-0.37271 z m 93.2716,-0.54289 c 0.2755,-0.2755 -0.5054,-2.84013 -1.7354,-5.69918 -3.7412,-8.69673 -2.842,-19.17619 2.6686,-31.10095 2.7536,-5.95871 2.5769,-8.16077 -0.4487,-5.59137 -0.9658,0.82023 -3.8831,2.70529 -6.4828,4.189 -2.5996,1.48372 -7.5496,5.08027 -11,7.99233 -9.6341,8.13112 -29.1877,21.46417 -38.1855,26.03753 L 1352.5,380.5 1374,381 c 23.3179,0.54228 40.9763,0.35702 41.7716,-0.43823 z M 1509,380.08156 c 0,-0.50514 -1.591,-1.90176 -3.5356,-3.10359 -5.5521,-3.43135 -8.754,-10.65941 -9.416,-21.25593 l -0.5484,-8.77796 -14,10.55744 c -13.4887,10.17186 -26.6505,18.5917 -31.1597,19.93334 -1.1878,0.35343 -2.7054,1.30017 -3.3724,2.10387 -1.0594,1.27646 2.7867,1.46127 30.4097,1.46127 18.5428,0 31.6224,-0.37988 31.6224,-0.91844 z m -64.4788,-9.72314 c 9.9477,-4.88157 23.4858,-13.75798 42.9788,-28.17954 17.8773,-13.22626 18.5,-13.75398 18.5,-15.67888 0,-1.29161 -3.3296,-1.5 -23.9667,-1.5 h -23.9666 l -9.7834,12.11107 C 1429.3783,360.51414 1426,365.53976 1426,370.26016 c 0,6.05127 6.3218,6.08481 18.5212,0.0983 z m -397.2397,-0.44392 c 14.9306,-5.00732 48.0696,-24.49341 61.2096,-35.99191 3.0342,-2.65517 6.2531,-5.2397 7.1532,-5.74341 0.9001,-0.5037 1.3218,-1.42508 0.9371,-2.0475 -1.0472,-1.69437 -56.6564,-1.58229 -58.7046,0.11832 -0.828,0.6875 -4.6265,4.85 -8.4412,9.25 -3.8146,4.4 -7.1668,8.225 -7.4493,8.5 -1.974,1.92112 -9.109,11.1237 -10.8547,14 -2.6855,4.42504 -2.8933,11.457 -0.3816,12.9199 2.8426,1.65567 9.8715,1.22819 16.5315,-1.0054 z m 92.3668,-2.37404 c 14.9755,-7.54478 53.6714,-38.59614 51.8237,-41.58572 C 1191.1316,325.40389 1183.0272,325 1172.3143,325 h -18.5677 l -8.6233,8.75 c -11.9831,12.15917 -20.274,21.8847 -22.961,26.93426 -1.5127,2.84265 -1.4912,8.58679 0.038,10.11574 2.4143,2.41427 8.4096,1.29428 17.4483,-3.25954 z m -170.33276,0.11593 c 7.25765,-3.37768 22.57158,-13.33345 32.68446,-21.24856 17.9283,-14.03204 22.9894,-18.75177 21.599,-20.14215 -0.3327,-0.33274 -7.492,-0.80851 -15.9095,-1.05726 l -15.30458,-0.45228 -17.78579,17.34471 C 959.8067,356.52643 953,364.4956 953,367.38873 c 0,0.25763 0.70714,1.17556 1.57143,2.03984 2.42223,2.42224 6.88378,1.88598 14.74411,-1.77218 z M 867.07519,366.75 c 4.45989,-2.28042 9.51024,-6.38248 16.92864,-13.75 C 893.6764,343.39378 904,330.06174 904,327.17668 c 0,-0.84577 -4.28874,-1.20906 -15.25,-1.29183 -8.3875,-0.0633 -16.08659,-0.0267 -17.10909,0.0813 C 867.80668,326.37144 848,341.47616 848,343.99491 c 0,0.52455 1.23856,1.59422 2.75236,2.37703 7.35587,3.80387 8.8546,10.74407 3.96444,18.35819 -1.49424,2.32657 -2.7168,4.46407 -2.7168,4.75 0,0.28593 1.96179,0.51987 4.35954,0.51987 2.94796,0 6.41758,-1.05232 10.71565,-3.25 z m 336.42451,0.6991 c 5.3914,-2.86663 22.6018,-14.64912 29.5955,-20.26152 C 1251.7383,332.22661 1257,327.65468 1257,326.41667 1257,325.25404 1254.1584,325 1241.1537,325 h -15.8464 l -9.478,10.25 c -9.967,10.77897 -19.2417,21.56482 -22.1185,25.72251 -1.715,2.47864 -2.2936,7.11136 -1.0441,8.36082 1.4039,1.40391 6.2264,0.56511 10.833,-1.88423 z m 325.5945,-0.99682 C 1544.3751,358.70886 1581,330.19192 1581,326.0373 c 0,-1.1673 -4.3454,-1.3585 -24.5,-1.07802 l -14,0.19483 -8.3061,8.17295 c -9.4929,9.3408 -20.6673,23.61523 -22.2799,28.46096 -0.897,2.69534 -0.7885,3.75464 0.602,5.87672 1.5436,2.35579 2.1295,2.53739 6.5121,2.01833 2.6488,-0.3137 7.1785,-1.76756 10.0661,-3.23079 z m -1163.17611,1.44381 c 19.72383,-3.30804 45.92042,-16.55996 67.99781,-34.39768 3.94941,-3.19097 8.72858,-7.4593 8.72858,-7.4593 0,0 -37.45222,-0.29762 -83.01106,-0.12032 l -22.77582,-0.01 2.24269,2.84092 c 2.60234,3.29651 2.11644,10.25033 1.50597,12.68267 -1.46679,5.84415 -10.36894,12.4929 -16.79724,12.54537 -10.36554,0.0846 3.39651,11.74087 16.42388,13.91082 7.63315,1.27144 18.12986,1.2744 25.68519,0.007 z M 797.5,364.42923 c 13.92266,-6.52844 53.5283,-35.73427 51.37662,-37.88594 -0.32712,-0.32712 -7.64763,-0.63693 -16.2678,-0.68847 l -15.67303,-0.0937 -11.04401,11.58514 c -6.0742,6.37183 -13.48475,14.56281 -16.46789,18.20219 -9.47207,11.55577 -5.93153,15.44906 8.07611,8.88078 z m 482.9197,1.51491 c 6.4021,-2.39532 18.1313,-9.85497 28.0803,-17.85884 3.85,-3.09727 8.6485,-6.85172 10.6634,-8.34322 2.0149,-1.4915 4.2649,-3.29042 5,-3.99759 0.7351,-0.70717 3.4695,-3.01441 6.0764,-5.1272 2.6068,-2.11278 4.4928,-4.24099 4.1909,-4.72936 -0.3018,-0.48836 -7.3847,-0.88178 -15.7397,-0.87427 l -15.191,0.0137 -16.8333,17.64036 c -17.0938,17.9133 -19.6669,21.42222 -17.5658,23.95396 1.5938,1.92031 4.9054,1.72209 11.3188,-0.6775 z m 85.2638,-5.75747 c 6.6679,-3.93206 16.5544,-10.46356 21.97,-14.51444 9.8052,-7.33435 22.5454,-18.23485 23.1798,-19.83274 0.3791,-0.95475 -1.1541,-1.02435 -19.8333,-0.90035 l -13.5,0.0896 -7.8009,8.23561 c -12.8848,13.60275 -24.5679,27.25648 -25.5181,29.82215 -1.5273,4.12404 -0.452,5.19396 4.7208,4.69693 3.495,-0.33583 7.6853,-2.23272 16.7817,-7.59679 z m -736.18404,4.69187 c 6.41776,-1.78166 20.37007,-8.98998 31.59703,-16.3243 C 673.47191,340.46967 690,328.06218 690,326.85664 690,326.38549 675.825,326 658.5,326 c -17.325,0 -31.5,0.38238 -31.5,0.84974 0,0.46736 -2.39133,4.85486 -5.31407,9.75 C 615.44875,347.04608 612,354.83702 612,358.48084 c 0,1.43785 1.10237,3.71244 2.45455,5.06461 2.77252,2.77253 8.14509,3.24858 15.04491,1.33309 z m 96.05344,-2.75087 c 4.3709,-2.12978 11.7721,-6.7633 16.4471,-10.29672 18.8609,-14.25525 21.75386,-16.48887 26.28292,-20.29271 2.59439,-2.17897 4.71708,-4.31647 4.71708,-4.75 0,-0.43353 -7.0875,-0.78534 -15.75,-0.78179 l -15.75,0.006 -9.62592,9.74355 c -20.40649,20.65586 -25.56022,27.22408 -23.20741,29.57688 1.87514,1.87515 9.38475,0.44953 16.88623,-3.20566 z m -211.47434,-0.0762 c 8.05217,-5.3698 33.54032,-33.24105 32.27343,-35.29093 -0.60213,-0.97426 -17.48539,-0.96998 -18.97376,0.005 -1.49887,0.98167 -13.21617,19.055 -17.75474,27.38579 -5.91868,10.86402 -4.29819,13.73768 4.45507,7.90034 z m -376.69064,-3.92759 c 2.45747,-2.71547 2.91009,-31.48782 2.91009,-31.48782 l -32.17136,-0.0316 c 0,0 3.29767,2.44719 9.27102,6.78564 7.60529,5.52373 -4.16497,1.60203 -13.24723,-4.41381 -1.32939,-0.88055 -4.164041,-2.33408 -4.164041,-2.33408 0,0 -4.664005,-0.0812 -14.598827,-0.0812 -7.848246,0 -16.559272,0.0923 -16.559272,0.0923 0,0 2.776333,3.25616 4.626348,6.00327 9.896197,14.69501 29.236022,24.7563 50.545352,26.29554 5.775,0.41715 10.76776,0.82358 11.09501,0.90318 0.32726,0.0796 1.35907,-0.69954 2.29291,-1.73142 z m 26.21705,-7.37584 c 11.86403,-7.61361 24.39854,-24.3181 24.39854,-24.3181 l -38.49299,0.0698 c 0,0 -1.13852,26.67517 0.0946,28.67039 1.17906,1.90776 7.0027,0.0683 13.99986,-4.42207 z M 934.74605,337.25 C 938.89833,334.9897 947,328.18003 947,326.95023 947,326.4276 943.38886,326 938.97525,326 c -7.82665,0 -8.05133,0.0679 -9.1012,2.75 -0.59205,1.5125 -1.31516,4.4375 -1.60692,6.5 -0.45296,3.20205 -0.25324,3.75 1.3668,3.75 1.0435,0 3.34395,-0.7875 5.11212,-1.75 z M 92.091645,317.12855 C 83.683803,305.65892 79.986096,292.80803 79.299847,279.75 L 79.117609,269.939 70.46531,270 c -4.590888,0.0324 -8.392354,-0.007 -8.392354,-0.007 -0.233909,0.55364 -1.379249,8.08562 -1.715737,15.68686 -0.654996,14.7963 0.380055,21.77161 4.907246,33.07042 l 2.103563,5.25 13.649319,-0.1122 c 8.012381,-0.0659 16.158641,0.0221 16.158641,0.0221 0,0 -3.706745,-4.71407 -5.084343,-6.78159 z m 48.079735,6.87148 c 0,0 -1.87763,-30.94069 -3.9897,-43.50003 l -1.68168,-10 -17.76595,-0.27314 -17.765957,-0.27314 -0.984563,2.5896 c -5.111445,14.48186 -4.650955,29.24771 2.02857,43.12972 1.6121,3.29522 3.02233,5.73345 4.91126,8.17367 0,0 7.74631,0.10399 17.85802,0.12288 14.37591,0.0269 17.39,0.0304 17.39,0.0304 z m 50.99855,-5.43068 c 3.4484,-9.64273 3.98935,-14.67168 2.81829,-26.20016 C 193.2054,284.66274 192.1338,279.82685 190.3055,275.75 L 187.72687,270 h -21.86343 c -13.11715,0 -21.96157,0.18281 -21.96157,0.18281 0,0 0.11793,0.85453 0.12199,1.06719 0.0131,0.6875 0.45766,3.05 0.98786,5.25 0.9064,3.76093 2.64708,22.11953 4.16854,39.58 l 0.391,7.86611 20.2515,-0.17537 L 189.40665,323.5 Z M 316,322 c 6.35098,-2.50332 10.30605,-2.49784 15.8592,0.022 4.17192,1.89306 6.7002,0.69303 58.75852,1.32141 l 54.39932,0.65663 8.74148,-7.86552 c 15.22799,-13.70202 41.84024,-43.35664 40.64463,-45.29119 -0.27936,-0.45201 -64.82389,-0.10705 -143.43131,-0.37105 l -142.92339,-0.48 0.46458,2.75388 c 0.25553,1.51464 0.87762,5.22889 1.38243,8.25389 1.79232,10.74019 -1.69484,31.70711 -5.49017,38.71482 -0.52604,0.97128 -1.79323,3.92008 -1.79323,3.92008 0,0 17.81956,-0.29153 54.35092,-0.29153 51.60497,0 54.1847,0.56923 59.03702,-1.34337 z m 187.56283,-6.25 c 5.74715,-10.00745 21.43835,-33.68288 27.60585,-41.65266 1.02263,-1.32147 1.68602,-2.57597 1.4742,-2.78779 -0.65597,-0.65598 -20.95619,-1.34488 -22.75998,-0.77238 -0.93697,0.29738 -4.02159,3.54334 -6.85472,7.21324 -2.83313,3.66991 -13.22347,15.33602 -23.08966,25.92469 C 470.07233,314.26377 462,323.16861 462,323.46362 462,323.75863 470.28562,324 480.41248,324 h 18.41248 z m 56.2634,-3.5 c 19.68695,-22.81905 34.58778,-40.74245 33.93916,-41.37437 -0.2038,-0.19856 -6.59032,-0.28332 -12.87692,-0.45572 l -11.61152,-0.31842 -2.49971,2.69925 c -2.71,2.92633 -23.25627,30.18788 -31.65085,41.99552 -2.85299,4.01294 -4.92199,7.72544 -4.5978,8.25 0.32419,0.52456 4.76791,0.95374 9.87493,0.95374 h 9.28549 z m 44.2158,9.75 c 0.41645,-0.825 3.9118,-8.025 7.76744,-16 3.85565,-7.975 9.7416,-18.55 13.0799,-23.5 3.3383,-4.95 6.52627,-10.00992 6.53755,-10.69742 C 631.44222,270.87124 627.95678,271 619.06256,271 L 607.34882,270.77629 602.57,276.25 C 588.94536,291.8558 565,321.58547 565,322.73647 c 0,1.15721 11.67554,1.0001 22.26068,0.67439 8.50576,-0.26173 16.30745,-0.47204 16.78135,-1.41086 z m 94.49945,-0.92241 c 2.35701,-1.69267 4.66191,-3.0896 5.122,-3.10427 0.46008,-0.0147 4.26524,-2.82717 8.45589,-6.25 28.62005,-23.37618 38.80724,-31.39892 41.84207,-32.95196 5.27056,-2.69716 19.83011,-2.50977 23.4037,0.30122 2.84974,2.2416 3.30592,4.80198 1.4687,8.24316 -0.64139,1.20134 -8.55053,9.53762 -17.57586,18.52507 -9.02534,8.98744 -16.13253,16.61797 -15.79376,16.95674 0.33877,0.33877 7.87667,0.50757 16.75089,0.37512 l 16.13495,-0.24083 7.57497,-6.71592 c 4.16623,-3.69376 14.39762,-13.38547 22.73641,-21.53713 12.71069,-12.42547 15.92884,-15.05217 19.90893,-16.25 8.87551,-2.67114 22.3097,-1.2227 24.73099,2.66643 2.07919,3.33966 -0.63337,7.25095 -16.3588,23.58802 -8.80301,9.14541 -15.83757,17.12048 -15.63236,17.72239 0.24561,0.72039 5.12597,1.10347 14.28146,1.121 22.02164,0.0421 20.39333,0.60337 34.89401,-12.02663 6.94609,-6.05 14.7409,-12.73355 17.3218,-14.85233 C 897.43419,288.74464 915,272.75312 915,271.8922 c 0,-1.12643 4.92311,-1.07858 -132,-1.28311 l -115.5,-0.17254 -3.23256,3.53173 C 657.01757,281.8891 631,319.03052 631,321.45925 c 0,1.69277 2.91494,1.86809 39.378,2.36834 l 23.87801,0.3276 z m 208.88265,0.16144 C 908.48858,317.88526 912,297.60198 912,294.80711 912,293.2632 911.70339,292 911.34087,292 c -1.70788,0 -35.38638,28.04269 -36.1742,30.12076 -0.18334,0.48358 6.87384,0.87924 15.68261,0.87924 14.41303,0 16.07188,-0.17624 16.57485,-1.76097 z M 960.59419,316.25 c 10.95209,-9.23046 22.88584,-18.55059 33.23391,-25.95533 9.5843,-6.85821 14.2392,-8.14977 24.8697,-6.90037 7.3432,0.86305 9.5742,2.11361 8.7712,4.9166 -0.3449,1.20401 -7.5666,9.09636 -16.0481,17.53857 -8.4815,8.44221 -15.4209,15.75471 -15.4209,16.25 0,0.49557 7.0178,0.90053 15.6058,0.90053 h 15.6057 l 7.5944,-7.09226 c 13.2988,-12.41964 26.0718,-20.60794 44.6941,-28.65184 20.9316,-9.0414 31.343,-8.7182 37.4496,1.16254 2.4404,3.94863 2.5741,7.45523 0.5447,14.28886 -2.2853,7.69521 -11.6824,15.2927 -18.9151,15.2927 -5.8052,0 -11.1686,-5.34211 -9.575,-9.53709 1.3892,-3.65703 13.0946,-10.46291 17.9951,-10.46291 2.8945,0 3.7774,-2.95055 1.4132,-4.7231 -5.6758,-4.25541 -20.3619,3.10496 -36.0721,18.07866 -5.6872,5.42056 -10.3404,10.25806 -10.3404,10.75 0,0.5051 12.4663,0.89444 28.6391,0.89444 h 28.6391 l 6.1109,-5.33458 c 25.2668,-22.05695 68.5043,-39.90963 87.862,-36.27809 1.9415,0.36423 5.4918,2.22172 7.8895,4.12775 2.3977,1.90603 4.8377,3.46988 5.4223,3.47521 0.5846,0.005 2.3486,-1.3323 3.9201,-2.97254 4.4639,-4.65935 10.2444,-6.41383 18.7867,-5.70211 7.9007,0.65827 11.0426,2.77429 10.0058,6.7388 -0.2965,1.13396 -7.2298,9.19893 -15.4073,17.92215 -8.1775,8.72323 -14.8682,16.34709 -14.8682,16.94191 0,0.72902 5.074,1.0815 15.5685,1.0815 h 15.5685 l 10.4659,-8.75 c 5.7563,-4.8125 12.9189,-10.6211 15.9169,-12.90801 2.9979,-2.2869 9.5208,-7.57279 14.4952,-11.74641 12.604,-10.57494 12.8613,-10.70898 21.7001,-11.30389 13.0943,-0.88131 18.502,1.72281 16.8927,8.13478 -0.315,1.25517 -7.7757,9.6602 -16.5792,18.67783 -8.8035,9.01764 -16.0114,16.78631 -16.0175,17.26372 -0.01,0.47741 7.3978,0.67669 16.4531,0.44286 l 16.4642,-0.42515 6.7858,-6.40474 c 3.7322,-3.52261 13.8347,-13.25676 22.4499,-21.63144 17.6017,-17.11015 16.9548,-16.77932 31.6799,-16.201 7.0632,0.27739 9.3922,0.75287 11.0525,2.25644 4.2686,3.86576 2.8332,6.03245 -18.1337,27.37076 -7.1745,7.30167 -12.8501,13.47029 -12.6123,13.70804 0.2377,0.23776 8.3137,0.73579 17.9467,1.10673 l 17.5144,0.67444 9.2268,-8.61413 c 5.0748,-4.73778 13.5997,-12.07117 18.9443,-16.29643 5.3445,-4.22527 11.5703,-9.29602 13.8351,-11.26835 12.739,-11.09395 16.3822,-14.61038 16.3822,-15.81219 0,-1.11147 -45.3379,-1.31629 -269.906,-1.21934 l -269.90605,0.11652 -1.96901,2.16448 c -5.06965,5.57293 -5.81481,11.51187 -3.11436,24.82158 1.51757,7.47962 1.95816,12.48837 1.59152,18.0929 l -0.50698,7.75 h 10.69804 10.69804 z m 242.25651,-1.28604 c 3.8256,-4.41983 7.7017,-9.6083 8.6136,-11.52995 3.9596,-8.34428 -0.4013,-13.76337 -9.4232,-11.70967 -4.8244,1.0982 -11.2098,3.40058 -12.0411,4.34166 -0.275,0.3113 -2.75,2.07878 -5.5,3.92773 -6.511,4.37767 -26.5,21.10632 -26.5,22.17768 0,0.45573 8.5264,0.82859 18.9475,0.82859 h 18.9475 z m 378.1658,7.43947 c 5.4204,-0.71905 8.7057,-3.42543 16.2706,-13.40343 6.9988,-9.2312 8.3185,-14.23694 4.633,-17.57229 -5.8788,-5.32027 -21.3958,1.34173 -40.9201,17.56841 -10.1774,8.45851 -14.0098,12.17894 -13.4607,13.06742 0.5915,0.95704 26.8176,1.22331 33.4772,0.33989 z M 133.23858,265.24551 c -0.73401,-2.5014 -4.09683,-17.03987 -5.41508,-17.85459 -2.91596,-1.80217 -20.49892,8.85734 -24.5735,14.89746 -1.3209,1.95809 -3.16131,5.05048 -3.16131,5.05048 0,0 5.1206,0.2163 16.66131,0.32171 13.56847,0.12388 17.01922,0.0266 17.01922,0.0266 0,0 -0.39596,-1.98265 -0.53064,-2.44162 z m 53.28374,2.44161 c 0,0 -1.48588,-2.95698 -6.0123,-7.13606 -6.7705,-6.25101 -14.44041,-10.6524 -22.51002,-12.91741 -6.21583,-1.74469 -20,-3.25686 -20,-2.19408 0,1.21364 5.56451,22.13643 5.56451,22.13643 0,0 40.56583,0.1338 42.95781,0.11112 z m 313.12083,-1.80376 c 0.8432,-0.84322 5.73491,-6.78336 10.70379,-13.38336 4.96888,-6.6 10.95163,-14.25 13.29501,-17 2.34338,-2.75 6.7576,-7.92169 9.80937,-11.49264 3.05177,-3.57095 6.80214,-8.84568 6.80214,-8.84568 0,0 -37.92603,-0.18041 -207.00346,0.20475 -113.1625,0.25777 -205.8955,0.50578 -206.07332,0.55113 -0.17783,0.0453 -0.17159,0.86994 0.0139,1.83244 0.29624,1.53747 1.73214,1.7637 11.82333,1.86282 8.29918,0.0815 13.67523,0.70437 19.37591,2.24484 8.40771,2.27197 17.27788,6.85264 19.7612,8.5505 7.89821,5.10599 15.60688,12.05966 20.93136,19.96036 2.11463,3.25435 4.83502,8.30613 6.04532,11.22619 1.47752,3.56479 1.71608,5.45359 3.11663,5.74865 1.14724,0.2417 67.71246,-0.0342 146.49255,0.18142 119.38973,0.32681 142.0877,1.17722 143.37428,-0.10939 z m 40.81972,-3.99346 c 5.96121,-8.28387 14.14374,-18.83724 25.46794,-32.84714 5.53806,-6.85149 10.06919,-12.81399 10.06919,-13.25 0,-0.38116 -3.90986,-0.70173 -9.07121,-0.77637 C 566.18588,215.00565 565.41705,215 564.63021,215 h -11.36978 l -5.88022,7.13323 c -3.23411,3.92328 -9.48367,11.46078 -13.8879,16.75 -4.40423,5.28922 -9.10664,11.19177 -10.44981,13.11677 -1.34317,1.925 -4.43864,5.975 -6.87881,9 l -4.68367,6.24094 7.13348,0.10061 c 3.80128,0.0536 9.34479,0.30503 12.34937,0.25302 5.45422,-0.0944 5.46927,-0.10346 9.5,-5.70467 z m 387.10097,0.68771 c 6.37527,-5.19326 8.60513,-6.09273 11.39839,-4.59783 2.24396,1.20093 2.71403,4.94396 0.85444,6.80355 -0.65084,0.65084 -0.87644,1.49024 -0.50133,1.86534 0.59424,0.59425 498.00436,0.47003 528.82526,-0.13207 l 11.6405,-0.2274 25.1357,-25.28498 c 13.8247,-13.90675 24.9695,-25.45125 24.7663,-25.65446 -0.5355,-0.53551 -445.928,-0.4382 -446.4637,0.0975 -0.2474,0.24738 0.952,2.15047 2.6654,4.22908 3.4744,4.2151 3.8859,7.22829 1.5253,11.16932 -4.4149,7.37079 -15.3293,11.13765 -21.6222,7.4624 -1.7694,-1.03338 -4.0159,-3.24651 -4.9921,-4.91805 -1.7407,-2.98041 -1.7246,-3.14025 0.8304,-8.26741 1.4329,-2.87553 3.6744,-5.9287 4.981,-6.78483 1.3066,-0.85612 2.1279,-1.95737 1.8252,-2.4472 -0.3186,-0.51539 -75.63608,-0.17628 -178.78847,-0.43812 L 711.4059,215 l -3.52896,3.75 c -1.94093,2.0625 -5.94712,6.9 -8.90266,10.75 -2.95554,3.85 -7.10864,9.025 -9.22912,11.5 -6.13872,7.16506 -6.24766,7.29973 -9.30267,11.5 -1.60014,2.2 -4.6043,6.05396 -6.67592,8.56436 C 671.69496,263.57475 670,265.90874 670,266.251 c 0,0.34225 1.4625,0.76329 3.25,0.93564 1.7875,0.17235 58.50963,0.20755 126.04918,0.0782 l 122.79919,-0.23513 5.46547,-4.45214 z M 80.009769,265.25 c 1.116141,-4.791 3.928443,-10.6381 7.098812,-15.2863 5.850406,-8.57751 11.833492,-14.37568 21.784429,-21.11114 8.39867,-5.68478 9.82026,-7.61835 9.56131,-9.26214 -0.23837,-1.51312 -1.09875,-3.97127 -1.09875,-3.97127 0,0 -5.38285,0.003 -12.66591,-0.0245 l -10.129394,-0.038 -10.67119,12.33861 C 74.678056,238.54549 65.355319,256.39184 63.44997,264.25 L 62.783184,267 h 8.608408 c 3.551337,0 8.216776,-0.027 8.216776,-0.027 z M 609,252.90179 c 6.325,-7.68384 14.11846,-17.21763 17.3188,-21.1862 3.20034,-3.96858 7.36284,-8.80956 9.25,-10.75775 1.88716,-1.94819 3.4312,-4.08569 3.4312,-4.75 C 639,215.32412 635.40283,215 625.5953,215 h -13.40471 l -6.34529,8.11333 c -3.48992,4.46232 -12.5328,15.88363 -20.0953,25.38067 -7.5625,9.49704 -13.75,17.54604 -13.75,17.88667 0,0.34063 5.7375,0.59062 12.75,0.55553 l 12.75,-0.0638 z m 31,7.88881 c 2.475,-3.38591 5.79988,-7.98644 7.38862,-10.2234 1.58874,-2.23696 7.18893,-9.2422 12.44486,-15.5672 C 674.05401,217.88696 674,217.95779 674,216.42327 674,215.28402 671.93687,215 663.6612,215 h -10.3388 l -9.4112,11.13197 C 630.1639,242.39285 611,265.89038 611,266.48553 c 0,0.28296 5.5125,0.5025 12.25,0.48787 l 12.25,-0.0266 z m 914.4874,-25.66111 c 3.8569,-2.08351 7.9126,-4.27871 9.0126,-4.87823 8.0529,-4.389 22.5,-13.59754 22.5,-14.34143 0,-0.50041 -1.2375,-0.95581 -2.75,-1.01201 -4.3055,-0.15997 -16.2366,-0.17666 -21.8235,-0.0305 l -5.0735,0.1327 -8.9837,10.25 C 1536.9873,237.09545 1533,242.23944 1533,243.78767 c 0,1.3334 11.7723,-3.41019 21.4874,-8.65818 z M 116.25383,212.85335 C 116.25294,211.43525 110.3125,198 109.65955,198 c -0.776,0 -12.518716,13.47382 -12.86487,14.70559 0,0 5.50001,0.14234 10.44992,0.17211 6.77836,0.0408 9.00923,-0.0243 9.00923,-0.0243 z m 443.36294,-18.9761 c 9.27813,-10.52427 19.00776,-21.43002 21.6044,-24.25 2.59664,-2.81999 6.2573,-6.84308 5.63912,-6.84359 l -448.78316,-0.36653 c -0.8729,-7.1e-4 -5.19209,7.20992 -9.04041,12.60003 -3.84832,5.39011 -7.68089,10.48416 -8.51683,11.3201 -2.11521,2.1152 -1.98514,3.10548 2.04958,15.60477 L 126.13895,213 l 208.2973,-0.41782 208.50621,0.20891 z m 25.73061,11.81624 c 3.21606,-3.95642 12.21606,-14.32752 20,-23.04689 8.88456,-9.95225 14.15262,-16.65244 14.15262,-18 0,-2.04495 -0.44216,-2.14478 -9.33702,-2.10811 l -9.33703,0.0385 -7.12213,7.46152 c -15.9382,16.69769 -21.66428,22.89805 -29.49498,31.93797 -4.51486,5.21205 -8.20884,9.82455 -8.20884,10.25 0,0.42545 5.29109,0.0469 11.75,0.26458 l 11.75,0.39595 5.84738,-7.19349 z m 70.76347,-7.31817 c 26.37614,-28.81007 30.84252,-33.89284 30.86567,-35.12532 0.0178,-0.94678 -3.70369,-1.25 -15.34166,-1.25 -17.50087,0 -17.33521,-0.0628 -24.99552,9.47086 C 620.29377,204.25916 615,211.10799 615,212.40437 c 0,0.3276 6.24144,-0.10553 13.86085,0.14318 L 642.72169,213 Z m 30.52662,4.43413 c 15.20953,-17.48863 29.01374,-33.1919 31.75939,-36.12856 1.44966,-1.55052 2.37685,-3.23802 2.06043,-3.75 C 720.14086,162.4189 715.94942,162 711.14297,162 h -8.73901 L 689.8472,174.75 C 672.73819,192.12229 657,209.99728 657,212.05691 c 0,0.53026 4.55255,0.23649 10.38747,0.49064 L 677.77494,213 Z m 788.25053,9.37746 60.3879,-0.48333 18.1121,-17.70547 c 9.9616,-9.73801 21.5995,-20.72735 25.862,-24.42076 4.2625,-3.69341 7.75,-7.19819 7.75,-7.78841 0,-0.76342 -116.6646,-0.0596 -404.25,0.387 -222.3375,0.34501 -409.74255,-0.1985 -416.45566,-0.19036 L 754.08869,162 l -7.52718,9.25 c -4.13995,5.0875 -9.82094,11.95 -12.62443,15.25 C 722.76028,199.65628 714,210.4021 714,211.53313 c 0,0.92194 79.53312,1.13511 350.25,0.93873 192.6375,-0.13974 377.4246,-0.0191 410.638,-0.28495 z m 125.3062,-4.95464 c 9.0153,-6.37304 25.9345,-19.22486 27.8638,-21.16529 0.8568,-0.86184 3.5422,-3.14198 5.9675,-5.06698 7.4119,-5.88313 18.9745,-17.25954 18.9745,-18.669 0,-1.06838 -4.4186,-1.331 -22.3938,-1.331 h -22.3938 l -23.6062,24.10211 c -12.9834,13.25617 -23.6062,24.73117 -23.6062,25.5 0,1.14056 2.9913,1.39463 16.25,1.38016 l 16.25,-0.0177 6.6942,-4.73227 z M 634.45933,150.14723 c 4.92763,-5.30598 22.90412,-23.69575 39.94774,-40.86616 17.04362,-17.170408 30.78693,-31.4168 30.54067,-31.658646 -0.24626,-0.241846 -4.41268,1.753561 -9.25871,4.434238 -12.14785,6.719817 -34.53644,23.519808 -49.22,36.933818 -3.31704,3.03023 -10.72014,9.78452 -16.45135,15.00952 -17.61535,16.05947 -25.41128,24.13871 -24.08388,24.95909 0.66294,0.40971 5.33653,0.76528 10.38577,0.79015 l 9.18043,0.0452 8.95933,-9.64723 z m 102.62218,-2.85992 c 15.88375,-16.26005 15.81628,-16.19262 45.71518,-45.68517 13.8825,-13.69383 25.03547,-25.103315 24.78437,-25.354416 -1.6688,-1.668802 -29.84973,17.295708 -48.53032,32.658736 C 737.45432,126.6675 706,156.16785 706,158.66164 706,159.68384 708.20441,160 715.33151,160 h 9.3315 z m 921.41809,9.71388 c 3.205,-2.66143 9.8454,-12.32349 11.2284,-16.33784 1.1642,-3.37897 1.1367,-4.22084 -0.2042,-6.26743 -5.0997,-7.78308 -23.4889,-2.13854 -45.5238,13.97343 -6.9114,5.05363 -11,8.73922 -11,9.91567 0,0.5306 9.1202,0.76559 21.8474,0.56291 17.5661,-0.27975 22.201,-0.64164 23.6522,-1.84674 z M 127.47514,133 c 15.34446,-23.00518 18.63995,-35.755821 14.3443,-55.5 -0.5983,-2.75 -1.70764,-6.22521 -2.46519,-7.722689 -1.20093,-2.373917 -1.7922,-2.641656 -4.61581,-2.090106 -8.93056,1.744454 -15.43967,6.827735 -21.09097,16.470952 -5.27589,9.002613 -7.36156,18.169403 -8.26867,36.341843 -0.49298,9.87604 -0.20343,13.31094 2.27598,27 0.29885,1.65 0.99204,3.83874 1.54042,4.86387 0.91186,1.70462 1.37919,1.49103 5.46974,-2.5 2.45998,-2.40013 8.22457,-9.98887 12.8102,-16.86387 z"
       id="path34"
       sodipodi:nodetypes="sssssssscssscsssssscssssssscssscsscsccscsscccsssscsssssssssssscssssssssssscssssssssscsssssscssscssssssscssssssssscsssscssssssssssssssssssssssssssssssssssssscsssssssssssscsssssscssscsccsssscssssssssssssssssssssscsscsssccsssssssssscsssssssssscsssscssssssssssssssscsssssscssssssssscsssssssssscssscsscsscccsssscsssssssscsssssssssscssssssscssssscscscssssccssscsssssssssscsssssssscsssssssssssssscsssccsscccscsccsccsscscssssscscsscssssscsccsssscsccssccscccscssssscsscccsssssssscssssscssssssssscssssssssscsssssscssssssssssssscssssssssssscssscsssssssssssssscssssssssssscssscsssssscsssssscscssssssscssssscssscccsssssssscssssssssssssscssssscsssssscccssccsssssssssssssscsssssssscssssssssssscssssssssccssssssccsscscsssssscsssscsssssscssscsssssscssssssssssssssscccssssssssssccssssssscssssssssscsssssssscssssssssssssssccsssssssssccssssssscsssssssssssssssssssssss" />
  </g>
</svg>
