<?xml version="1.0" encoding="UTF-8" standalone="no"?>
<!-- Created with Inkscape (http://www.inkscape.org/) -->
<svg xmlns:rdf="http://www.w3.org/1999/02/22-rdf-syntax-ns#" xmlns="http://www.w3.org/2000/svg" height="500" viewBox="0 0 1693 500" width="1693" version="1.1" xmlns:cc="http://creativecommons.org/ns#" xmlns:dc="http://purl.org/dc/elements/1.1/">
 <metadata>
  <rdf:RDF>
   <cc:Work rdf:about="">
    <dc:format>image/svg+xml</dc:format>
    <dc:type rdf:resource="http://purl.org/dc/dcmitype/StillImage"/>
    <dc:title/>
   </cc:Work>
  </rdf:RDF>
 </metadata>
 <path d="m74.479 446.61c-11.834-3.71-21.266-14.17-22.214-24.62-0.8139-8.9759 1.6502-15.02 8.0319-19.702 4.9569-3.6362 5.4738-3.7846 13.181-3.7846 6.6323 0 8.6628 0.3985 11.722 2.3004 7.9227 4.9263 10.733 15.184 6.9041 25.2-1.1565 3.025-2.103 5.6125-2.1032 5.75-0.000277 0.1375 2.1678 0.25 4.818 0.25 11.633 0 21.953-6.2069 29.357-17.656 3.94-6.1 7.82-15.08 7.82-18.1 0-1.0849-11.227-1.3082-62.25-1.2381-34.238 0.047-62.812 0.0629-63.5 0.0352-0.6875-0.03-1.25-0.73-1.25-1.55 0-0.825 0.5625-1.4972 1.25-1.4937 0.6875 0.003 9.575-0.18371 19.75-0.41589s38.397-0.46 62.715-0.50626c49.785-0.0947 45.741 0.60617 46.43-8.0474l0.36-4.47-15.5-1.76c-18.98-2.15-32.822-6.39-45.711-13.98-11.368-6.69-15.189-9.81-20.793-16.94-7.845-9.98-5.332-9.19-27.684-8.76-12.675 0.24-19.888 0.01-20.054-0.63-0.1622-0.63 6.979-1.19 19.242-1.5 12.202-0.31287 19.426-0.87427 19.302-1.5-0.10876-0.55-1.6059-5.05-3.327-10-3.8546-11.086-6.7939-24.481-7.6418-34.825l-0.64141-7.8246-13.347 0.32461c-9.5353 0.23-13.347-0.01-13.346-0.82 0.002-1.94 2.7146-2.36 15.114-2.36 8.7055 0 12.045-0.33935 12.301-1.25 0.19335-0.6875 0.9154-4.4 1.6045-8.25 1.7918-10.01 5.4087-19.572 11.593-30.65 2.964-5.31 5.388-9.92 5.388-10.25s-10.548-0.6-23.441-0.6c-15.523 0-23.664-0.36-24.1-1.07-0.3627-0.58-0.5015-1.22-0.3087-1.41 0.7705-0.77 14.332-1.38 32.35-1.45l19-0.075 4.182-5.2462c6.7812-8.5068 20.636-25.17 23.068-27.743 1.2375-1.3094 2.25-2.6849 2.25-3.0566 0-0.37176 1.3688-2.1994 3.0418-4.0614s3.7095-4.623 4.5257-6.1355c1.3618-2.5238 1.3378-2.7524-0.2918-2.7798-0.97662-0.0164-21.463-0.003-45.526 0.029-38.616 0.05-43.75-0.12-43.75-1.47 0-1.8287-1.0968-1.7787 46.5-2.1201 19.25-0.13808 36.964-0.28656 39.363-0.32996 5.095-0.0921 5.0508 0.77193 0.78904-15.436-4.5121-17.16-5.8838-26.7-5.3699-37.345 0.95022-19.681 7.2755-37.434 16.9-47.433 6.1578-6.3972 12.32-9.5921 21.405-11.098 5.8843-0.97506 6.5395-0.88246 10.602 1.4981 10.44 6.1181 17.249 22.862 19.885 48.893 1.9979 19.734-0.0511 29.641-10.587 51.195-2.432 4.975-4.2249 9.2424-3.9843 9.483 0.38236 0.38237 184.18-0.83688 351-2.3284 30.8-0.27538 65.326-0.50224 76.725-0.50414l20.71-0.01 14.78-14.82c8.126-8.151 18.338-17.938 22.692-21.75 4.3549-3.8115 8.8549-7.8331 10-8.9369 15.06-14.516 40.628-34.221 60.715-46.793 16.858-10.551 49.537-24.502 54.485-23.26 2.9672 0.74471 3.9525 4.072 2.0312 6.8589-0.8346 1.2106-8.4817 9.2832-16.994 17.939-8.5119 8.6559-20.129 21.059-25.815 27.562-5.6866 6.5033-14.389 16.436-19.339 22.073-4.95 5.6368-10.8 12.416-13 15.064-2.2 2.6485-7.7424 9.2586-12.316 14.689l-8.3164 9.8735 16.176 0.27529 16.176 0.2753 16.641-16.395c35.11-34.62 62.43-57.309 90.65-75.323 19.38-12.371 47.95-25.337 55.82-25.337 3.69 0 5.65 1.506 5.65 4.332 0 1.1864-10.334 12.401-26.769 29.05-24.679 25.001-39.808 41.285-62.41 67.176-4.7731 5.4677-9.6176 11.146-10.766 12.619-2.0766 2.664-2.0771 2.6809-0.0838 3.3135 1.1019 0.34974 8.8715 0.3926 17.266 0.0952 8.3942-0.29736 69.262-0.8129 135.26-1.1456 66-0.33275 129.23-0.75643 140.5-0.94152 11.275-0.18508 70.45-0.60789 131.5-0.93958 61.05-0.33168 118.65-0.80841 128-1.0594 9.35-0.25098 61.775-0.71824 116.5-1.0384 54.725-0.32011 106.25-0.76402 114.5-0.98646 8.25-0.22245 22.703-0.42043 32.118-0.43996l17.118-0.0355 7.6156-5.8852c4.1885-3.2368 9.9855-7.3768 12.882-9.1999 2.8966-1.8231 6.5189-4.3333 8.0497-5.5782 3.612-2.9375 22.075-12.836 27.785-14.896 6.6409-2.396 15.004-3.3556 20.423-2.3432 15.2 2.8396 18.293 17.484 6.864 32.497-1.2956 1.7019-2.3557 3.3894-2.3557 3.75 0 0.36059 4.5 0.65561 10 0.65561 8.2222 0 10 0.26667 10 1.5 0 1.2533-2.0556 1.5-12.5 1.5-7.2453 0-12.5 0.40014-12.5 0.95187 0 2.601-23.97 24.714-38.866 35.856-8.9658 6.7059-16.714 12.193-17.218 12.193-0.5041 0-0.9165 0.47543-0.9165 1.0565 0 0.72761 12.621 1.0002 40.542 0.8758 22.298-0.0994 40.823 0.10018 41.167 0.44349 0.3433 0.34331 0.3376 0.9108-0.013 1.2611-0.3503 0.35029-20.299 0.85774-44.33 1.1277l-43.693 0.49079-9.3987 6.3723c-5.1693 3.5048-9.5837 6.3723-9.8099 6.3723-0.2261 0-5.0356 2.8575-10.688 6.3499-12.539 7.748-27.777 15.935-46.067 24.751-7.5849 3.656-14.11 6.9855-14.5 7.3989-0.3901 0.41341 39.39 0.43077 88.4 0.0386 83.943-0.67172 89.148-0.61273 89.774 1.0174 0.3653 0.95177 0.5212 1.8734 0.3466 2.048-0.1746 0.17463-24.148 0.38691-53.274 0.47175-29.126 0.0848-70.699 0.39171-92.386 0.68195l-39.43 0.52771-2.4517 2.6074c-1.3484 1.4341-5.6121 6.2074-9.4749 10.607-3.8627 4.4-10.956 12.275-15.764 17.5-11.388 12.378-16.95 19.169-16.95 20.694 0 0.957 5.2853 1.0971 23.745 0.62928l23.745-0.60171 5.2184-5.3025c8.8243-8.9664 16.891-14.394 35.789-24.077 13.811-7.0774 25.456-11.195 36.732-12.99 12.538-1.995 19.341-0.98822 24.79 3.6684 3.6793 3.1445 5.4409 3.6614 6.5213 1.9132 0.3624-0.58633 2.4815-2.3863 4.7091-4 3.817-2.765 4.6084-2.934 13.745-2.934 8.1223 0 9.9634 0.29664 11.35 1.8287 3.2668 3.6098 1.9556 6.1826-8.8731 17.411-12.266 12.718-20.472 21.885-20.472 22.869 0 0.50616 15.784 0.89184 36.5 0.89184 23.667 0 36.5 0.3516 36.5 1 0 1.3419-0.055 1.346-19.5 1.4509-49.025 0.2646-57.344 0.53599-58.679 1.9142-18.483 19.093-30.821 34.588-30.821 38.704 0 9.1941 16.041 0.6491 47.061-25.069 16.721-13.863 17.091-14.121 19.835-13.802 3.4398 0.39938 3.9284 3.8354 1.1085 7.7955-5.6728 7.9667-46.362 39.316-56.642 43.639-4.5666 1.9208-16.174 2.1265-19.039 0.33735-3.2823-2.0498-6.4713-7.6109-6.9725-12.159-0.8101-7.3514-1.3212-8.8112-3.0844-8.8112-0.9325 0-7.3364 3.7407-14.231 8.3127-13.42 8.8993-18.351 11.663-24.286 13.611-8.5496 2.8071-3.796 3.2503 29 2.7037 18.012-0.30019 56.262-0.86087 85-1.246l52.25-0.70015v2.1593c0 2.1536-0.065 2.1593-24.75 2.1829-13.612 0.013-35.325 0.21569-48.25 0.45041-12.925 0.23473-96.625 0.68453-186 0.99956s-171.72 0.77613-183 1.0247c-11.275 0.24853-57.625 0.69008-103 0.98122-123.15 0.79017-217.48 1.4851-274 2.0186-27.775 0.26218-95.275 0.71959-150 1.0165-242 1.3128-410.02 2.4309-449 2.9879-16.775 0.2397-52.084 0.46545-78.465 0.50168-26.381 0.0362-48.993 0.3239-50.25 0.63928-1.417 0.35566-2.2847 1.3252-2.2847 2.553 0 2.5954-6.3102 16.951-10.243 23.304-7.405 11.96-17.713 20.148-30.789 24.457-10.192 3.3587-20.13 3.9548-27.489 1.6489zm303.52-57.14c20.075-0.1855 116.15-0.60788 213.5-0.93862s179.91-0.8561 183.47-1.1675l6.4703-0.56611-3.9703-1.3551c-8.5071-2.9035-13.125-12.113-11.778-23.487 0.57387-4.8455 0.47093-5.2262-1.2841-4.7493-1.0494 0.28517-7.7916 4.6166-14.983 9.6255-19.682 13.709-29.991 18.315-40.996 18.315-17.26 0-23.54-17.071-13.827-37.586 1.4647-3.0934 2.3933-5.8941 2.0637-6.2237-0.32961-0.32962-5.002 2.7644-10.383 6.8756-29.26 22.355-52.333 34.798-64.501 34.785-8.2557-0.009-12.546-1.6633-17.714-6.8309-6.0445-6.0445-7.595-11.238-6.707-22.463 0.35681-4.5104 1.3009-10.64 2.098-13.62 0.79706-2.9808 1.2182-5.7933 0.93597-6.25-0.29-0.46-9.46-0.83-20.38-0.83h-19.861l-7.714 9.25c-21.001 25.183-36.446 39.596-44.858 41.861-11.115 2.9931-19.783-3.5194-21.258-15.973-0.64935-5.4828 2.3463-18.475 6.2274-27.009 1.34-2.95 2.44-5.77 2.44-6.25s-8.51-0.88-18.92-0.88h-18.92l-9.3298 8.016c-38.191 32.813-81.897 50.407-110.71 44.568-19.463-3.9436-30.991-12.473-35.536-26.291-2.089-6.3518-1.4268-15.167 1.5152-20.168 1.0923-1.8568 1.7545-3.6075 1.4716-3.8904-0.28289-0.28289-23.814-0.44043-52.291-0.35009-47.787 0.15159-51.871 0.29723-53 1.8904-10.218 14.414-13.318 17.664-23.281 24.403-3.5774 2.4201-10.327 5.8956-15 7.7232-11.765 4.6018-14.989 6.0805-15.037 6.8966-0.023 0.38669-0.26832 3.7953-0.54517 7.5747l-0.50337 6.8716 98.295-0.72004c54.07-0.4 114.72-0.88 134.8-1.06zm458.5-2.3722 10-0.17333-3.9764-1.9834c-7.67-3.84-13.52-12.11-13.52-19.13 0-1-0.21-1.82-0.47-1.82-0.25705 0-4.8043 2.9819-10.105 6.6265-11.448 7.8709-23.387 14.114-28.928 15.127l-4 0.73105 5 0.50784c4.6545 0.47276 22.331 0.51176 46 0.10149zm99.852-0.75774 15.852-0.65744-4.352-2.0892c-6.4725-3.1072-9.1652-8.8241-8.5202-18.089 0.26803-3.85 1.4214-9.3625 2.5631-12.25s1.7368-5.25 1.3225-5.25-2.4442 1.149-4.5108 2.5533c-5.6737 3.8554-11.492 5.6014-16.275 4.8841-3.9735-0.59586-4.4184-0.37971-10.54 5.1206-6.5978 5.9283-16.766 12.893-22.891 15.68-10.482 4.7686-15.34 6.7192-20.395 8.1887-3.0828 0.8962-5.6051 1.8419-5.6051 2.1015 0 0.70683 55.161 0.56242 73.352-0.19203zm86.39-0.96408c2.1166-0.56725 2.0261-0.75726-1.6173-3.3965-5.2496-3.8028-8.1417-10.162-8.8438-19.446-0.3132-4.1413-0.8799-7.5296-1.2594-7.5296-0.778 0-7.4997 4.6594-20.021 13.879-7.2004 5.3014-18.858 11.71-29 15.943-2.7366 1.1421 56.531 1.6792 60.742 0.5505zm92.971-0.75112c0.1515-0.15147-1.7321-2.3706-4.1858-4.9314-5.402-5.6378-7.862-12.906-7.363-21.755 0.2366-4.194 0-5.8294-0.8132-5.5176-0.6321 0.24371-5.3571 3.3339-10.5 6.867-10.149 6.9726-29.296 17.586-40.181 22.274l-6.8308 2.9418 10.831 0.5c10.498 0.48466 58.488 0.17637 59.043-0.3793zm58.031-0.26902 12.057-0.64833-2.9364-2.4708c-4.1084-3.457-6.1013-7.7634-6.7807-14.652-0.3211-3.256-1.0845-6.0854-1.6965-6.2876-0.612-0.20221-4.662 2.2456-9 5.4397-8.6858 6.3953-17.101 11.51-25.137 15.278-2.8875 1.354-5.25 2.8055-5.25 3.2257 0 0.93315 22.301 0.99969 38.744 0.1156zm87.813-2.3986c-5.8092-2.8983-8.2959-5.6512-10.152-11.239-2.018-6.0756-1.3763-14.73 1.5893-21.434 1.1031-2.4937 2.0056-4.958 2.0056-5.4761 0-0.51818-3.3772 1.9015-7.5048 5.3771-17.978 15.138-32.819 25.905-43.086 31.258l-6.8298 3.5611 33.96-0.0399 33.961-0.0398-3.9431-1.9672zm57.164 1.3875 17.221-0.65325-4.3754-4.0937c-5.3939-5.0467-6.989-10.136-6.018-19.203 0.3764-3.515 0.29-6.3909-0.192-6.3909s-6.2719 4.0445-12.866 8.9877c-11.845 8.8791-28.93 18.395-35.24 19.627-1.7875 0.3492-3.25 1.0287-3.25 1.5099 0 1.0333 20.553 1.1324 44.721 0.21564zm95.761-1.3113c0.33-0.53385-0.093-2.3114-0.9408-3.95-4.352-8.4158-3.969-19.371 1.098-31.41 1.3559-3.2214 2.3293-6.263 2.1631-6.7591-0.3985-1.19-12.498 6.781-21.302 14.034-11.064 9.1144-27.14 20.002-36.448 24.684l-8.5515 4.3016 31.691 0.035c19.449 0.0215 31.923-0.33993 32.291-0.93561zm69.268-0.0184c15.066-0.007 24.25-0.37999 24.25-0.98533 0-0.53588-1.3519-1.6734-3.0043-2.5279-3.4165-1.7667-7.5592-7.5294-9.0434-12.58-0.5524-1.88-1.0242-6.4557-1.0482-10.168-0.027-4.1288-0.462-6.75-1.1209-6.75-0.5925 0-3.1344 1.6875-5.6487 3.75-10.403 8.5334-26.2 19.458-34.634 23.951l-9 4.7944 4 0.65339c2.2 0.35936 5.575 0.47787 7.5 0.26334 1.925-0.21452 14.412-0.39499 27.75-0.40104zm-1111.3-7.52c20.242-5.9142 40.143-16.867 59.472-32.731l7.4913-6.1484-2.9633-0.81172c-1.63-0.44-15.34-0.6-30.46-0.34-15.125 0.25707-36.844 0.48189-48.263 0.49959l-20.77 0.03 1.5134 3.6221c2.2316 5.341 1.9304 11.463-0.76038 15.456-2.9255 4.3411-8.0846 7.7954-12.759 8.543-5.8113 0.92926-6.6064 1.754-4.6176 4.7893 2.3631 3.6065 12.712 8.5708 20.017 9.602 9.7335 1.3739 22.122 0.40566 32.096-2.5085zm492.13-2.0988c6.6841-3.1489 18.492-13.312 25.535-21.978 6.03-7.4 11.88-16.41 11.88-18.28 0-0.81-4.9-1.14-16.81-1.14-14.605 0-17.066 0.22964-18.751 1.75-3.3629 3.0345-9.2696 7.25-10.159 7.25-0.46987 0-3.0384 2.2174-5.7078 4.9276l-4.8535 4.9276 3.5104 1.4667c8.5009 3.5519 9.8424 13.126 2.941 20.989-1.3515 1.5397-1.3779 1.9419-0.1765 2.6844 1.9486 1.2043 6.5584 0.25673 12.602-2.5903zm184.91 0.15c7.3724-3.248 21.944-10.695 28.858-14.748 7.731-4.532 24.61-16.695 29.142-20.999 2.2-2.0896 4.7875-4.0564 5.75-4.3706s1.75-1.2254 1.75-2.0249c0-1.239-4.189-1.4428-28.38-1.3806-20.487 0.0527-28.779 0.40621-29.814 1.271-0.7889 0.65887-4.5553 4.798-8.37 9.198-3.8146 4.4-7.1912 8.225-7.5036 8.5-1.9072 1.6789-9.3857 11.969-11.004 15.141-2.4499 4.8022-2.5338 10.384-0.1781 11.845 2.8155 1.7462 13.157 0.47286 19.75-2.4317zm88.666-1.6682c10.974-5.4735 39.043-26.988 49.193-37.705 4.873-5.145 3.5061-5.5323-16.671-4.7236l-18.03 0.72263-3.7524 3.0155c-4.9926 4.0122-20.446 21.51-25.205 28.54-3.1079 4.5909-3.7446 6.346-3.5 9.6481 0.2475 3.3414 0.7294 4.1509 2.799 4.7016 3.5576 0.94669 6.4594 0.14314 15.166-4.1996zm305.39 0.45666c10.033-4.9232 19.222-10.969 36.198-23.815 7.2881-5.5151 15.388-11.527 18-13.36 2.612-1.8328 5.3259-4.4203 6.0309-5.75l1.3-2.42h-47.872l-4.6108 5.75c-23.7 29.52-27.6 35.17-27.6 39.87 0 5.6858 6.6085 5.5886 18.553-0.27305zm-474.35 0.0556c10.42-5.27 20.86-12.53 40.75-28.35 16.4-13.05 16.4-13.05-3.8-13.05h-15.76l-17.693 17.75c-9.7309 9.7625-18.364 19.064-19.184 20.67-3.7656 7.3721 3.9496 8.8453 15.599 2.9786zm-457.59-0.98923c2.1392-1.425 6.9704-5.5875 10.736-9.25 7.1146-6.92 23.158-25.988 22.456-26.69-0.3992-0.3992-10.842-0.77329-16.005-0.57334-2.2747 0.0881-3.7366 1.672-9.2231 9.9929-12.32 18.61-17.08 29.11-13.26 29.11 0.74825 0 3.1108-1.1659 5.25-2.5909zm117.14 1.1694c6.9489-1.8499 20.124-9.0444 34.123-18.634 13.205-9.0453 25.069-18.117 25.102-19.195 0.013-0.4125-13.814-0.74053-30.726-0.72895l-30.75 0.0211-5.5 9.6912c-10.606 18.688-11.904 23.598-7.354 27.814 3.0846 2.8587 7.1866 3.1386 15.105 1.0307zm95.7-3.57c4.4-2.1324 10.7-5.9198 14-8.4163 18.159-13.738 32.466-25.561 32.487-26.847 0.007-0.4125-6.8811-0.75-15.307-0.75h-15.319l-14.146 14.75c-19.345 20.171-21.266 22.941-17.465 25.183 2.542 1.4992 6.7082 0.46246 15.75-3.9196zm69.026 3.4116c5.2579-2.1969 21.03-12.251 31.87-20.316 10.27-7.64 22.6-18.11 22.6-19.2 0-0.39632-7.1064-0.77796-15.792-0.84807l-15.792-0.12747-11.132 11.818c-22.22 23.58-26.39 30.26-18.91 30.26 1.8578 0 5.0744-0.70887 7.148-1.5753zm407.76-0.54865c5.3175-2.6826 20.827-13.35 28.501-19.604 20.9-17.06 25.2-20.78 25.2-21.95 0-1.04-3.3-1.32-15.4-1.32h-15.388l-9.9586 10.75c-15.2 16.53-23.2 26.82-23.2 30.11 0 1.5443 0.3 3.1078 0.6667 3.4744 1.2807 1.2808 5.446 0.65003 9.6231-1.4573zm326.04-3.5321c15.602-7.868 53.89-38.557 51.974-41.657-0.3716-0.60113-7.6329-0.74166-19.202-0.37162l-18.604 0.59508-10.5 10.799c-12.446 12.8-20.333 23.824-20.333 28.418 0 6.5071 6.4559 7.3659 16.666 2.2168zm-1389.1-5.96c0.87287-7.1786 0.78667-23.263-0.1277-23.828-1.3684-0.84571-28.588-0.83476-28.588 0.0115 0 0.48571 2.3539 2.639 5.231 4.7851 2.877 2.1461 4.9964 4.2814 4.7098 4.7452-0.63751 1.0315-10.27-3.1364-16.525-7.15-4.552-2.91-4.731-2.94-19.258-2.94-8.064 0-14.662 0.38-14.662 0.85 0 1.55 6.182 9.58 10.891 14.15 4.903 4.76 20.239 12.98 28.109 15.07 7.0208 1.8628 25.119 2.7638 27.5 1.369 1.4745-0.86384 2.1879-2.7171 2.7152-7.0536zm1141.2 6.58c9.013-3.3722 26.957-16.055 45.808-32.376 6.5713-5.6897 7.6972-7.0754 6.358-7.8248-0.895-0.5009-7.8377-0.76457-15.428-0.58593l-13.801 0.3248-12.018 12.5c-20.4 21.218-24.166 26.128-22.053 28.75 1.4436 1.7915 4.8925 1.5474 11.134-0.78805zm74.28 0.10868c11.403-5.1776 36.47-22.909 51.169-36.196l5.1171-4.6252-4.7194-0.61875c-4.8287-0.63309-25.118 0.0431-28.719 0.95708-1.1 0.27921-5.15 4.0844-9 8.4559-3.85 4.3716-10.522 11.888-14.826 16.702-11.07 12.383-12.865 17.278-6.3169 17.232 1.7286-0.0121 5.0116-0.87041 7.2954-1.9074zm-1192-7.05c3.5741-2.241 8.9353-6.1991 11.914-8.7958 5.9222-5.1632 11.92-13.535 10.89-15.202-0.62503-1.0113-34.172-0.69283-35.199 0.33417-0.23918 0.23917-0.67224 6.8477-0.96237 14.686l-0.52751 14.251 3.6936-0.5994c2.0315-0.32966 6.6179-2.4329 10.192-4.6739zm775.26-21.5c6.096-4.4849 9.8188-8.4985 7.9586-8.5803-8.2862-0.36433-14.136-0.11009-14.819 0.64406-1.2699 1.4019-3.105 7.4162-3.105 10.176 0 2.1759 0.31286 2.3807 2.7157 1.7776 1.4937-0.37489 4.7562-2.1828 7.25-4.0175zm-843.43-5.73c0.36036-0.36036-1.3605-3.4982-3.8242-6.973-8.89-12.54-12.719-24.11-12.719-38.44v-7.38h-7.8776c-8.877 0-10.19 0.79776-10.06 6.1146 0.04534 1.862 0.06193 8.3354 0.03688 14.385-0.04712 11.376 1.2081 18.171 5.239 28.359l2.1203 5.3591 13.214-0.38615c7.2679-0.21239 13.509-0.681 13.87-1.0414zm44.457-3.79c0.95483-6.6838-4.0887-46.197-6.2253-48.771-0.81306-0.97967-4.7024-1.2743-15.469-1.172-19.632 0.18669-19.427 0.11034-21.488 8.0028-3.3886 12.977-1.4985 30.179 4.2521 38.7 1.61 2.39 2.93 4.73 2.93 5.21 0 1.6625 2.6106 1.8983 19 1.7164l16.5-0.19zm50.985-0.46577c5.1859-12.098 4.8324-31.288-0.80679-43.784l-2.5947-5.75-20.542 0.0153c-11.298 0.008-21.072 0.35227-21.719 0.76411-0.89694 0.57046-0.85218 2.3 0.18791 7.2618 1.499 7.1509 3.9771 26.073 5.0042 38.209l0.65587 7.75h37.9l1.9143-4.4658zm125.2 1.4378c6.0307-2.5383 11.387-2.501 16.353 0.11395 3.8596 2.0324 4.8484 2.0713 38.461 1.5151 18.975-0.314 43.635-0.57769 54.801-0.58598l20.3-0.01 15.86-15.75c17.837-17.709 33.71-36.215 31.981-37.284-1.6661-1.0297-283.72 0.4732-284.76 1.5174-0.24081 0.24081 0.0695 3.8489 0.68957 8.018 2.1552 14.49 0.73996 28.804-3.8806 39.25-1.0866 2.4564-1.7975 4.7548-1.5799 5.1076 0.21768 0.35273 24.402 0.51623 53.742 0.36335 50.494-0.2631 53.597-0.3834 58.031-2.25zm182.4 0.26266c0.59701-0.40408 3.0282-4.1097 5.4026-8.2347 4.9279-8.5609 14.792-23.706 23.24-35.681 3.1743-4.4996 5.7715-8.4371 5.7715-8.75 0-1.2117-22.612-0.57392-24.146 0.68108-0.84042 0.6875-4.4139 4.8408-7.9411 9.2296s-13.501 15.743-22.163 25.231c-8.6625 9.488-15.75 17.485-15.75 17.77 0 0.81453 34.37 0.57702 35.585-0.24591zm56.99-5.98c4.595-5.2634 17.202-20.663 31.633-38.64 3.1392-3.9106 5.7267-7.4477 5.75-7.8602s-5.2735-0.75-11.771-0.75c-11.61 0-11.856 0.0473-14.332 2.75-5.87 6.41-35.85 47.78-35.85 49.47 0 0.43 4.4 0.78 9.78 0.78h9.7775zm49.925 1c3.0131-8.0792 13.13-27.296 19.464-36.97 3.32-5.071 6.0363-9.6834 6.0363-10.25 0-0.65-4.4-1.03-11.9-1.03h-11.896l-7.3964 9.25c-4.068 5.0875-13.565 16.738-21.104 25.89-7.53 9.15-13.7 16.91-13.7 17.25s8.71 0.61 19.36 0.61h19.364zm93.087 1.2512c1.8018-1.3743 4.3193-2.9366 5.5944-3.4718 1.2751-0.53514 6.227-4.2482 11.004-8.2512 25.096-21.029 35.449-29.317 38.671-30.96 3.9728-2.0254 18.045-2.5667 22.517-0.86605 3.6882 1.4022 4.9395 4.3273 3.3928 7.9309-0.69677 1.6234-8.6656 10.526-17.708 19.784l-16.44 16.83 16.292 0.27525 16.292 0.27526 4.1492-3.6807c2.282-2.0244 12.388-11.598 22.457-21.275s19.969-18.495 22-19.595c2.8164-1.5257 5.5893-2 11.692-2 9.7914 0 13.017 0.83388 15.014 3.8809 1.1609 1.7717 1.2959 2.9892 0.54914 4.9532-0.54454 1.4322-8.2065 10.237-17.027 19.566-8.8201 9.329-16.036 17.239-16.036 17.579 0 0.33931 8.1367 0.54214 18.081 0.45073l18.081-0.1662 8.1261-7.1316c4.4694-3.9224 10.845-9.6257 14.169-12.674 3.3233-3.0483 9.8674-8.7671 14.542-12.708 4.675-3.9413 11.65-10.131 15.5-13.754l7-6.5884-91.5 0.56121c-50.325 0.30866-106.11 0.60685-123.97 0.66264-17.858 0.0558-33.052 0.32493-33.764 0.59806-2.3619 0.90637-33.913 45.582-35.962 50.921-0.4286 1.1169 5.0637 1.3506 31.744 1.3506h32.263zm209.26-2.75c1.6943-5.4845 4.3395-22.211 3.9856-25.202l-0.33445-2.8256-6 4.8599c-12.4 10.04-29.51 25.08-29.51 25.94 0 0.26 6.94 0.48 15.42 0.48h15.422zm46.241 1.9682c0.87449-0.67001 4.6146-3.893 8.3113-7.1622s7.9937-6.8692 9.5488-8c1.5552-1.1308 7.8965-6.0494 14.092-10.93 16.582-13.064 16.722-13.129 27.958-13.109 10.401 0.0187 14 1.2321 14 4.7197 0 1.4636-5.1805 7.356-15.969 18.163-8.7827 8.7981-15.796 16.169-15.585 16.38 0.21117 0.21117 7.464 0.33433 16.117 0.27369l15.733-0.11026 3.8646-4.3904c3.8086-4.3268 19.011-16.379 25.838-20.485 1.925-1.1576 8.6242-4.617 14.887-7.6876 20.435-10.019 29.468-12.087 37.424-8.5675 11.171 4.9415 11.943 20.031 1.5266 29.825-7.2798 6.8446-14.477 8.2188-19.761 3.7731-4.4751-3.7656-4.2144-7.5744 0.7654-11.182 4.1591-3.0128 10.034-5.735 14.408-6.6759 4.9789-1.071 2.6964-5.5535-2.8279-5.5535-7.4543 0-18.51 6.9181-31.672 19.818-5.3625 5.2559-9.75 9.9668-9.75 10.469 0 0.53917 11.676 0.72692 28.543 0.45895l28.543-0.45348 3.2073-2.8945c1.7639-1.592 3.6572-3.3778 4.2072-3.9686 1.4528-1.5603 15.38-11.667 19.619-14.236 12.419-7.5285 30.029-15.14 43.343-18.733 8.1335-2.1952 11.466-2.6094 18.165-2.2579 7.223 0.37911 8.6456 0.78123 11.902 3.3643 2.0343 1.6136 4.285 3.3577 5.0015 3.8758 0.9211 0.66608 2.5144-0.15261 5.4388-2.7946 5.4345-4.9098 7.6532-5.6474 16.986-5.6474 6.0939 0 8.3243 0.40497 10.086 1.8313 3.4177 2.7675 1.968 6.2177-6.3374 15.083-12.901 13.771-21.703 23.914-21.703 25.011 0 1.1882 17.907 1.4892 26.582 0.44677 4.3224-0.51941 6.055-1.4519 11.596-6.2413 3.5832-3.0969 9.526-8.1057 13.206-11.131 3.6801-3.025 10.387-8.6036 14.904-12.397 16.125-13.542 17.583-14.432 24.888-15.18 7.9102-0.81042 15.227 0.12275 17.312 2.208 1.8639 1.8639 1.91 6.2603 0.091 8.6588-0.7466 0.98434-7.8198 8.5614-15.718 16.838-7.8984 8.2765-14.511 15.459-14.694 15.96-0.1918 0.52475 6.3096 0.91206 15.31 0.91206h15.643l5.6902-5.2238c3.1295-2.8731 13.34-12.721 22.69-21.884 18.727-18.353 19.68-18.923 31.5-18.83 10.99 0.086 15.985 2.878 14.652 8.1901-0.3537 1.4089-7.6106 9.9161-16.126 18.905-8.5159 8.9887-15.493 16.681-15.504 17.093-0.011 0.4125 7.9667 0.74997 17.729 0.74992l17.75-0.00008 10.623-9.7499c5.8425-5.3624 17.569-15.474 26.058-22.47 14.98-12.345 21.462-18.47 20.532-19.4-0.5519-0.55188-124.06-0.46642-164.21 0.11363-41.146 0.59436-142.55 1.3985-267.5 2.1212-119.15 0.68918-109.59 0.0749-112.58 7.2369-1.905 4.5593-1.7925 8.1559 0.68652 21.945 1.479 8.2269 1.9163 13.559 1.4722 17.953l-0.63182 6.25 10.278-0.0318c6.4959-0.0201 10.863-0.48007 11.868-1.25zm242.91-1.47c0.019-0.4125 2.2769-3.225 5.0182-6.25s6.1394-7.1546 7.5513-9.1769c2.943-4.2152 4.2415-11.1 2.4913-13.209-1.9439-2.3422-7.4932-2.8223-12.25-1.0598-2.3894 0.88526-5.3569 1.8501-6.5944 2.1442-1.2375 0.29404-2.25 0.83514-2.25 1.2024 0 0.3673-1.4625 1.5159-3.25 2.5525-4.4746 2.5948-28.75 22.577-28.75 23.665 0 1.0669 37.986 1.1983 38.034 0.13158zm391.93-5.8326c6.0691-5.483 15.05-19.279 15.045-23.111-0.01-3.7188-2.9551-6.3067-7.1893-6.3067-4.6731 0-13.088 3.7594-21.883 9.7759-8.9122 6.0969-26.932 21.11-26.932 22.439 0 0.43183 8.3237 0.78514 18.497 0.78514h18.497zm-1509.3-43.17c3.3253-9.9617 10.907-21.696 19.007-29.416 3.2746-3.1213 12.222-9.4625 18.961-13.439 1.5723-0.92765 1.7094-1.5702 0.85322-4-0.99454-2.8226-1.2064-2.8987-8.494-3.049-4.1107-0.0848-9.6278 0.0923-12.26 0.39359-4.7424 0.54272-4.8695 0.65438-13.84 12.154-9.0392 11.588-15.496 22.799-19.012 33.013-1.024 2.97-1.862 5.56-1.862 5.75s3.614 0.34 8.031 0.34c6.7597 0 8.1239-0.27709 8.6156-1.75zm53.353-0.64c0-2.9082-3.8298-15.731-5.0942-17.056-3.15-3.29-26.91 13.28-26.91 18.76 0 0.38 7.2 0.69 16 0.69h16zm50 1.4128 3.5-0.63713-5-4.8179c-10.288-9.913-20.366-14.394-34.366-15.279-8.8798-0.56127-9.3368-0.49315-8.7991 1.3118 0.31189 1.0471 1.5242 5.716 2.694 10.375 1.1698 4.6593 2.3536 8.838 2.6305 9.2862 0.57511 0.93055 34.032 0.72695 39.341-0.23941zm273.5-1.6464c23.1-0.32701 42.344-0.80025 42.765-1.0516 0.42092-0.2514 4.2166-5.0388 8.4348-10.639 11.154-14.808 20.074-26.132 26.05-33.071 2.8875-3.3529 5.25-6.4874 5.25-6.9656 0-0.49013-29.99-0.59593-68.75-0.24252-74.184 0.67638-137.63 1.2069-262.25 2.1926-43.725 0.34587-79.888 0.98918-80.363 1.4296-2.2715 2.1079 1.0507 2.9192 11.656 2.8462 21.308-0.14653 39.377 7.3357 52.707 21.826 7.5439 8.2005 8.5997 9.7281 12.581 18.204l3.4765 7.4007 103.22-0.66754c56.76-0.36 122.11-0.93 145.21-1.26zm86.5-9.499c3.575-4.9745 12.457-16.543 19.738-25.709l13.24-16.66-10.68-0.29c-5.8705-0.15714-11.198-0.0843-11.84 0.16183-2.2523 0.86428-38.735 46.566-40.181 50.334-0.38743 1.0096 2.08 1.2807 11.362 1.2483l11.857-0.0414 6.5-9.0445zm55.929 5.9488c1.006-1.2769 6.4961-7.8965 12.2-14.71 5.7041-6.8138 12.554-15.138 15.222-18.498 2.6682-3.3601 6.6465-8.0569 8.8407-10.437 2.1941-2.3804 3.766-4.5512 3.493-4.8242-0.79596-0.79597-22.407-1.6384-25.045-0.97626-1.509 0.37872-5.1229 4.227-9.7323 10.364-4.0326 5.3686-10.069 13.136-13.415 17.261-10.917 13.459-18.413 23.747-17.771 24.389 0.34607 0.34608 5.9725 0.43234 12.503 0.19171 10.963-0.40397 12.014-0.61558 13.703-2.7591zm40.57-3.4c2.2-3.0297 5.35-7.4265 7-9.7706 1.65-2.3442 5.925-7.8206 9.5-12.17 9.3487-11.374 18-22.754 18-23.679 0-0.44-4.67-0.8-10.39-0.8h-10.387l-8.0115 9.75c-4.4063 5.3625-8.861 10.65-9.8993 11.75s-6.5372 7.7439-12.22 14.764c-5.6826 7.0203-10.729 13.009-11.214 13.309-2.833 1.7509 0.36518 2.4229 11.368 2.3889l12.25-0.038 4-5.5085zm221.26 4.0791 61.264-0.49527 5.508-4.4863c3.0294-2.4675 6.6287-4.7676 7.9985-5.1114 4.5702-1.147 6.9033 3.0414 4.3509 7.8106l-1.1137 2.0809 70.364-0.64883c38.7-0.35685 92.864-0.87133 120.36-1.1433 50.306-0.49748 104.12-0.93623 263.44-2.1478l86.437-0.65736 24.563-24.923c13.51-13.708 24.733-25.398 24.94-25.978 0.2633-0.73768-24.39-0.85676-82-0.39607-45.307 0.3623-145.58 1.1116-222.83 1.6652-77.249 0.55356-140.64 1.1923-140.87 1.4195-0.2272 0.22717 0.9888 2.1137 2.7022 4.1923 3.5059 4.2533 3.9296 7.7159 1.388 11.344-4.1677 5.9502-9.8797 8.9613-17.023 8.9736-4.5963 0.008-11.711-7.0198-10.797-10.664 0.8642-3.4429 5.0306-9.8553 7.5502-11.62 3.1987-2.2405 0.8426-2.6185-13.652-2.1902-7.0681 0.20882-66.851 0.63108-132.85 0.93835-66 0.30727-140.25 0.81935-165 1.138l-45 0.57927-2 2.2405c-1.1 1.2322-4.7 5.7413-8 10.02-3.3 4.2788-7.2502 9.1936-8.7782 10.922-5.19 5.92-20.68 26.61-20.68 27.68 0 0.75107 19.037 0.90359 64.25 0.51477 35.338-0.3039 91.819-0.77541 125.51-1.0478zm680.74-30.41c15.367-6.9675 44.916-24.669 43.906-26.302-0.4091-0.66193-5.6246-0.87222-14.597-0.58858l-13.961 0.44133-6.6553 7.3416c-8 8.81-17.2 20.17-17.2 21.24 0 1.3343 1.8328 0.8722 8.4624-2.1338zm-1426.1-21.34c-1.1534-3.7239-5.4194-11.755-6.2047-11.681-0.71535 0.0676-10.404 11.573-11.066 13.141-0.18333 0.43423 3.7845 0.78952 8.8174 0.78952 9.0295 0 9.1415-0.0298 8.4538-2.25zm295.06 0.71c1.65-0.21638 31.929-0.432 67.287-0.47915l64.287-0.0857 2.3786-2.6993c22.6-25.65 40.54-46.67 40.54-47.49 0-1.0462-26.548-0.89085-221 1.2931-45.375 0.50962-114.77 0.94153-154.21 0.9598l-71.7 0.04-2.511 3.25c-1.381 1.7875-5.7109 7.6381-9.6218 13.001-8.3319 11.426-8.2522 9.695-1.3502 29.3l1.6022 4.5511 140.65-0.62265c77.35-0.34 141.99-0.8 143.64-1.02zm170.86-4.21c2.2854-2.9314 18.898-22.401 21.972-25.75 8.8466-9.6395 15.779-18.696 15.476-20.217-0.31498-1.5799-1.3798-1.7494-9.3298-1.4844l-8.9742 0.29907-7.5 7.7507c-9.5972 9.9181-30.689 33.521-34.315 38.401l-2.7866 3.75h11.657c11.53 0 11.68-0.0299 13.801-2.75zm62.939 0.43622c1.2125-1.2726 5.1296-5.6566 8.7046-9.7424 3.575-4.0857 8.975-10.12 12-13.41 20.267-22.042 22.062-24.138 21.315-24.885-0.36-0.36-7.54-0.65-15.95-0.65h-15.293l-2.6129 2.75c-3.1831 3.3502-32.236 39.501-35.285 43.904-1.201 1.7349-2.1836 3.4224-2.1836 3.75s6.0954 0.59563 13.545 0.59563c12.856 0 13.658-0.11779 15.75-2.3138zm40-6.2217c3.9627-4.4994 8.0689-9.2571 9.1249-10.573 2.15-2.68 12.79-15.12 13.6-15.9 2.38-2.29 12.98-14.82 12.98-15.34 0-0.36-4.23-0.66-9.41-0.66h-9.4094l-12.995 13.75c-13.57 14.37-31.18 34.79-31.18 36.18 0 0.44315 4.5203 0.78593 10.045 0.76174l10.045-0.044 7.2049-8.1808zm296.7 6.02c38.775-0.27728 93.45-0.72427 121.5-0.99331 28.05-0.26905 82.725-0.71854 121.5-0.99888s92.325-0.73008 119-0.99944c26.675-0.26935 80.642-0.77298 119.93-1.1192l71.426-0.62944 18.574-18.266c10.216-10.046 22.134-21.353 26.484-25.126l7.9092-6.8598-3.9092-0.52126c-2.1501-0.28669-6.3842-0.45257-9.4092-0.36862-3.025 0.084-47.8 0.44797-99.5 0.80893-51.7 0.36095-141.92 1.0805-200.5 1.599-58.575 0.51852-145.42 1.1859-193 1.4832-47.575 0.29722-93.925 0.74242-103 0.98934-9.075 0.24691-55.875 0.7126-104 1.0349-48.125 0.32227-93.8 0.77297-101.5 1.0016-7.7 0.22859-15.171 0.42854-16.602 0.44432-1.9605 0.0216-3.7187 1.4471-7.1274 5.7787-2.4887 3.1625-8.1956 10.025-12.682 15.25-9.41 10.98-22.08 27.29-22.08 28.45 0 0.71956 66.199 0.48339 267-0.95252zm614.96-7.3205c14.58-9.1784 57.039-45.124 57.039-48.29 0-0.48497-10.012-0.88232-22.25-0.88301l-22.25-0.001-14.5 14.771c-21.484 21.885-33.976 35.629-32.956 36.258 0.4969 0.30711 7.9854 0.37487 16.641 0.15057 12.16-0.31513 16.315-0.77113 18.276-2.0062zm-970.88-44.01c0.3403-0.0892 4.787-4.7748 9.8815-10.412 5.0945-5.6375 22.591-23.887 38.881-40.555 16.29-16.662 29.84-30.57 30.12-30.901 0.275-0.33074-3.222 1.3814-7.7711 3.8048-8.1538 4.3436-23.422 15.132-35.715 25.236-19.58 16.093-56.158 50.82-55.186 52.392 0.46929 0.75933 17.158 1.1308 19.791 0.44053zm107.62-8.91c4.4122-4.8125 22.913-23.575 41.113-41.694 18.21-18.122 32.93-33.116 32.72-33.323-1.05-1.047-15.47 7.816-30.57 18.783-17.425 12.659-66.79 57.178-70.11 63.227-0.88542 1.6135-0.18834 1.75 8.9347 1.75h9.895zm-617.24 1.1988c5.5683-6.5178 16.691-22.927 20.11-29.669 7.1093-14.018 8.5919-28.226 4.5195-43.311-0.59851-2.217-1.7009-4.8689-2.4498-5.893-1.32-1.8052-1.5423-1.8073-7.2704-0.06864-10.109 3.0685-18.694 13.398-22.827 27.47-0.88493 3.0125-2.1192 11.787-2.7429 19.5-0.98142 12.137-0.91297 15.099 0.50899 22.023 2.2472 10.942 3.5931 15.5 4.5776 15.5 0.45734 0 2.9657-2.4981 5.5741-5.5512zm1537.2-0.36621c5.1204-0.56898 5.3587-0.74219 10.232-7.4376 6.0385-8.2965 7.639-13.06 5.4901-16.339-3.385-5.1662-12.184-4.2595-25.965 2.6754-9.5873 4.8247-24.841 15.33-28.96 19.944l-1.9598 2.1956 17.96-0.22802c9.8779-0.12541 20.319-0.49016 23.202-0.81057z"/>
</svg>
